<svg width="25" height="25" fill="none" xmlns="http://www.w3.org/2000/svg"><path fill-rule="evenodd" clip-rule="evenodd" d="M19.795 7.517a.55.55 0 01.119.579l-4.6 12.075a.55.55 0 01-.903.193L9.328 15.28l-5.052-1.684a.55.55 0 01-.006-1.042L19.22 7.38a.55.55 0 01.575.137zm-9.32 7.356l4.113 4.112 3.656-9.596-7.768 5.484zm5.436-5.183L6.16 13.065l3.375 1.125 6.376-4.5z" fill="#fff"/><path fill-rule="evenodd" clip-rule="evenodd" d="M.45 12.5C.45 5.845 5.845.45 12.5.45c6.655 0 12.05 5.395 12.05 12.05 0 6.655-5.395 12.05-12.05 12.05C5.845 24.55.45 19.155.45 12.5zM12.5 1.55C6.452 1.55 1.55 6.452 1.55 12.5c0 6.048 4.902 10.95 10.95 10.95 6.048 0 10.95-4.902 10.95-10.95 0-6.048-4.902-10.95-10.95-10.95z" fill="#fff"/></svg>