<svg width="21" height="21" fill="none" xmlns="http://www.w3.org/2000/svg"><path d="M10.5 0C4.707 0 0 4.707 0 10.5c0 1.862.51 3.6 1.362 5.117L.017 20.42a.457.457 0 00.55.567l5.008-1.241A10.426 10.426 0 0010.5 21C16.294 21 21 16.294 21 10.5 21 4.707 16.294 0 10.5 0zm0 .913a9.58 9.58 0 019.587 9.587 9.58 9.58 0 01-9.587 9.587c-1.7 0-3.29-.443-4.674-1.217a.456.456 0 00-.333-.045l-4.386 1.087 1.177-4.196a.456.456 0 00-.046-.356A9.532 9.532 0 01.913 10.5 9.58 9.58 0 0110.5.913zM6.685 5.022c-.293 0-.71.109-1.054.479-.206.222-1.066 1.059-1.066 2.53 0 1.536 1.065 2.86 1.193 3.03h.001a14.457 14.457 0 001.371 1.682c.824.867 1.981 1.87 3.418 2.482a16.25 16.25 0 001.58.576c.732.23 1.4.195 1.901.121.376-.055.788-.235 1.197-.494.408-.258.809-.58.985-1.068.126-.35.19-.674.214-.94a2.15 2.15 0 00.004-.36c-.008-.108.001-.191-.1-.358-.213-.349-.454-.358-.705-.482-.14-.07-.537-.263-.935-.453s-.743-.358-.955-.433c-.134-.049-.298-.118-.534-.091-.236.027-.47.197-.605.398-.13.191-.648.803-.806.983-.002-.001.012.005-.05-.026-.196-.097-.435-.179-.789-.366a6.525 6.525 0 01-1.28-.888v-.001c-.72-.635-1.226-1.431-1.385-1.699.01-.013-.001.003.022-.02.163-.16.307-.352.43-.493.172-.199.248-.374.331-.538.165-.327.073-.687-.022-.876.006.012-.052-.116-.114-.264l-.229-.545c-.17-.41-.361-.87-.475-1.14-.134-.318-.314-.547-.55-.657-.237-.11-.446-.079-.455-.08-.17-.007-.355-.01-.538-.01zm0 .913c.176 0 .35.002.495.009.149.007.14.008.111-.006-.03-.013.01-.018.095.184l.475 1.137c.085.206.166.399.23.55.064.151.099.236.139.317v.001c.04.078.037.028.023.056-.096.19-.11.238-.207.35-.148.171-.3.362-.38.44-.07.07-.196.177-.275.387-.08.21-.042.498.085.714.168.287.725 1.193 1.59 1.954.545.48 1.053.798 1.458 1.012.406.214.736.34.81.376.175.086.367.154.59.127a.89.89 0 00.538-.3v-.001c.163-.185.647-.738.88-1.078.01.003.006 0 .083.028v.001h.001c.036.013.477.21.87.398.394.188.794.382.924.447.187.092.275.153.298.153a.988.988 0 01-.003.15 2.903 2.903 0 01-.163.709c-.048.133-.298.407-.614.607s-.7.34-.843.362c-.428.063-.936.086-1.494-.09-.387-.12-.87-.278-1.494-.544-1.268-.54-2.345-1.46-3.114-2.27a13.585 13.585 0 01-.912-1.068c-.219-.284-.315-.432-.394-.537l-.001-.001c-.142-.187-1.008-1.392-1.008-2.477 0-1.149.534-1.599.822-1.91a.541.541 0 01.385-.187z" fill="#fff"/></svg>